<mxfile host="app.diagrams.net" agent="Mozilla/5.0 (Windows NT 10.0; Win64; x64) AppleWebKit/537.36 (KHTML, like Gecko) Chrome/136.0.0.0 Safari/537.36 Edg/136.0.0.0" version="27.0.3">
  <diagram name="第 1 页" id="r-ddtsW2n2lSNyHTyDSO">
    <mxGraphModel dx="1038" dy="715" grid="1" gridSize="10" guides="1" tooltips="1" connect="1" arrows="1" fold="1" page="1" pageScale="1" pageWidth="827" pageHeight="1169" math="0" shadow="0" adaptiveColors="auto">
      <root>
        <mxCell id="0" />
        <mxCell id="1" parent="0" />
        <mxCell id="7jRnnlwP65a75NCF8e-D-22" value="双能谱-时注模型" style="whiteSpace=wrap;strokeWidth=1;labelBackgroundColor=none;rounded=0;" vertex="1" parent="1">
          <mxGeometry x="220" y="301" width="408" height="566" as="geometry" />
        </mxCell>
        <mxCell id="7jRnnlwP65a75NCF8e-D-23" value="原始电容器数据" style="shape=parallelogram;perimeter=parallelogramPerimeter;fixedSize=1;strokeWidth=1;whiteSpace=wrap;size=-11;labelBackgroundColor=none;rounded=0;fontSize=20;" vertex="1" parent="1">
          <mxGeometry x="341" y="84" width="166" height="39" as="geometry" />
        </mxCell>
        <mxCell id="7jRnnlwP65a75NCF8e-D-24" value="数据处理器&#xa;平滑 + 序列构建 + 归一化" style="whiteSpace=wrap;strokeWidth=1;labelBackgroundColor=none;rounded=0;fontSize=20;" vertex="1" parent="1">
          <mxGeometry x="304" y="173" width="240" height="78" as="geometry" />
        </mxCell>
        <mxCell id="7jRnnlwP65a75NCF8e-D-25" value="特征融合模块" style="whiteSpace=wrap;strokeWidth=1;labelBackgroundColor=none;rounded=0;fontSize=20;" vertex="1" parent="1">
          <mxGeometry x="346" y="326" width="156" height="54" as="geometry" />
        </mxCell>
        <mxCell id="7jRnnlwP65a75NCF8e-D-26" value="时间卷积网络&#xa;(TCN)" style="whiteSpace=wrap;strokeWidth=1;labelBackgroundColor=none;rounded=0;fontSize=20;" vertex="1" parent="1">
          <mxGeometry x="346" y="430" width="156" height="78" as="geometry" />
        </mxCell>
        <mxCell id="7jRnnlwP65a75NCF8e-D-27" value="自注意力机制" style="whiteSpace=wrap;strokeWidth=1;labelBackgroundColor=none;rounded=0;fontSize=20;" vertex="1" parent="1">
          <mxGeometry x="346" y="558" width="156" height="54" as="geometry" />
        </mxCell>
        <mxCell id="7jRnnlwP65a75NCF8e-D-28" value="分支预测网络" style="whiteSpace=wrap;strokeWidth=1;labelBackgroundColor=none;rounded=0;fontSize=20;" vertex="1" parent="1">
          <mxGeometry x="346" y="662" width="156" height="54" as="geometry" />
        </mxCell>
        <mxCell id="7jRnnlwP65a75NCF8e-D-29" value="电容值预测" style="whiteSpace=wrap;strokeWidth=1;labelBackgroundColor=none;rounded=0;fontSize=20;" vertex="1" parent="1">
          <mxGeometry x="259" y="788" width="140" height="54" as="geometry" />
        </mxCell>
        <mxCell id="7jRnnlwP65a75NCF8e-D-30" value="电阻值预测" style="whiteSpace=wrap;strokeWidth=1;labelBackgroundColor=none;rounded=0;fontSize=20;" vertex="1" parent="1">
          <mxGeometry x="449" y="788" width="140" height="54" as="geometry" />
        </mxCell>
        <mxCell id="7jRnnlwP65a75NCF8e-D-31" value="评估与可视化&#xa;RMSE/MAE/R²" style="whiteSpace=wrap;strokeWidth=1;labelBackgroundColor=none;rounded=0;fontSize=20;" vertex="1" parent="1">
          <mxGeometry x="344" y="917" width="160" height="78" as="geometry" />
        </mxCell>
        <mxCell id="7jRnnlwP65a75NCF8e-D-32" value="预测结果" style="shape=parallelogram;perimeter=parallelogramPerimeter;fixedSize=1;strokeWidth=1;whiteSpace=wrap;labelBackgroundColor=none;rounded=0;size=-4.999999999999886;fontSize=20;" vertex="1" parent="1">
          <mxGeometry x="365" y="1045" width="118" height="39" as="geometry" />
        </mxCell>
        <mxCell id="7jRnnlwP65a75NCF8e-D-33" value="" style="curved=1;startArrow=none;endArrow=block;exitX=0.5;exitY=1;entryX=0.5;entryY=0;rounded=0;labelBackgroundColor=none;fontColor=default;" edge="1" parent="1" source="7jRnnlwP65a75NCF8e-D-23" target="7jRnnlwP65a75NCF8e-D-24">
          <mxGeometry relative="1" as="geometry">
            <Array as="points" />
          </mxGeometry>
        </mxCell>
        <mxCell id="7jRnnlwP65a75NCF8e-D-34" value="" style="curved=1;startArrow=none;endArrow=block;exitX=0.5;exitY=1;entryX=0.5;entryY=0;rounded=0;labelBackgroundColor=none;fontColor=default;" edge="1" parent="1" source="7jRnnlwP65a75NCF8e-D-25" target="7jRnnlwP65a75NCF8e-D-26">
          <mxGeometry relative="1" as="geometry">
            <Array as="points" />
          </mxGeometry>
        </mxCell>
        <mxCell id="7jRnnlwP65a75NCF8e-D-35" value="" style="curved=1;startArrow=none;endArrow=block;exitX=0.5;exitY=1;entryX=0.5;entryY=0;rounded=0;labelBackgroundColor=none;fontColor=default;" edge="1" parent="1" source="7jRnnlwP65a75NCF8e-D-26" target="7jRnnlwP65a75NCF8e-D-27">
          <mxGeometry relative="1" as="geometry">
            <Array as="points" />
          </mxGeometry>
        </mxCell>
        <mxCell id="7jRnnlwP65a75NCF8e-D-36" value="" style="curved=1;startArrow=none;endArrow=block;exitX=0.5;exitY=1;entryX=0.5;entryY=0;rounded=0;labelBackgroundColor=none;fontColor=default;" edge="1" parent="1" source="7jRnnlwP65a75NCF8e-D-27" target="7jRnnlwP65a75NCF8e-D-28">
          <mxGeometry relative="1" as="geometry">
            <Array as="points" />
          </mxGeometry>
        </mxCell>
        <mxCell id="7jRnnlwP65a75NCF8e-D-37" value="电容值预测" style="curved=1;startArrow=none;endArrow=block;exitX=0.24;exitY=1;entryX=0.5;entryY=0.01;rounded=0;labelBackgroundColor=none;fontColor=default;fontSize=20;" edge="1" parent="1" source="7jRnnlwP65a75NCF8e-D-28" target="7jRnnlwP65a75NCF8e-D-29">
          <mxGeometry x="0.289" y="-41" relative="1" as="geometry">
            <Array as="points">
              <mxPoint x="329" y="752" />
            </Array>
            <mxPoint x="2" y="-12" as="offset" />
          </mxGeometry>
        </mxCell>
        <mxCell id="7jRnnlwP65a75NCF8e-D-38" value="电阻值预测" style="curved=1;startArrow=none;endArrow=block;exitX=0.76;exitY=1;entryX=0.5;entryY=0.01;rounded=0;labelBackgroundColor=none;fontColor=default;fontSize=20;" edge="1" parent="1" source="7jRnnlwP65a75NCF8e-D-28" target="7jRnnlwP65a75NCF8e-D-30">
          <mxGeometry x="0.289" y="43" relative="1" as="geometry">
            <Array as="points">
              <mxPoint x="519" y="752" />
            </Array>
            <mxPoint x="-2" y="-12" as="offset" />
          </mxGeometry>
        </mxCell>
        <mxCell id="7jRnnlwP65a75NCF8e-D-39" value="" style="curved=1;startArrow=none;endArrow=block;exitX=0.5;exitY=1.01;entryX=0.14;entryY=0.01;rounded=0;labelBackgroundColor=none;fontColor=default;" edge="1" parent="1" source="7jRnnlwP65a75NCF8e-D-29" target="7jRnnlwP65a75NCF8e-D-31">
          <mxGeometry relative="1" as="geometry">
            <Array as="points">
              <mxPoint x="329" y="892" />
            </Array>
          </mxGeometry>
        </mxCell>
        <mxCell id="7jRnnlwP65a75NCF8e-D-40" value="" style="curved=1;startArrow=none;endArrow=block;exitX=0.5;exitY=1.01;entryX=0.86;entryY=0.01;rounded=0;labelBackgroundColor=none;fontColor=default;" edge="1" parent="1" source="7jRnnlwP65a75NCF8e-D-30" target="7jRnnlwP65a75NCF8e-D-31">
          <mxGeometry relative="1" as="geometry">
            <Array as="points">
              <mxPoint x="519" y="892" />
            </Array>
          </mxGeometry>
        </mxCell>
        <mxCell id="7jRnnlwP65a75NCF8e-D-41" value="" style="curved=1;startArrow=none;endArrow=block;exitX=0.5;exitY=1.01;rounded=0;labelBackgroundColor=none;fontColor=default;" edge="1" parent="1" source="7jRnnlwP65a75NCF8e-D-31">
          <mxGeometry relative="1" as="geometry">
            <Array as="points" />
            <mxPoint x="424" y="1040" as="targetPoint" />
          </mxGeometry>
        </mxCell>
        <mxCell id="7jRnnlwP65a75NCF8e-D-42" value="" style="curved=1;startArrow=none;endArrow=block;rounded=0;labelBackgroundColor=none;fontColor=default;" edge="1" parent="1" source="7jRnnlwP65a75NCF8e-D-24" target="7jRnnlwP65a75NCF8e-D-22">
          <mxGeometry relative="1" as="geometry">
            <Array as="points" />
          </mxGeometry>
        </mxCell>
      </root>
    </mxGraphModel>
  </diagram>
</mxfile>
